<svg width="100" height="100" viewBox="0 0 100 100" fill="none" xmlns="http://www.w3.org/2000/svg">
<g clip-path="url(#clip0_2210_636)">
<rect width="100" height="100" rx="10" fill="#FEFEFE"/>
<path d="M64.3068 85.0001L41.8749 55.2387H34.7295V85.0001H22.0681V15.1819H34.7295V43.0682H39.7954L62.9772 15.1819H81.3522L54.1136 47.5682L82.6136 85.0001H64.3068Z" fill="#2E3644"/>
<mask id="path-3-outside-1_2210_636" maskUnits="userSpaceOnUse" x="18" y="13" width="57" height="74" fill="black">
<rect fill="white" x="18" y="13" width="57" height="74"/>
<path d="M20.0682 85V15.1818H47.6136C52.9091 15.1818 57.4205 16.1932 61.1477 18.2159C64.875 20.2159 67.7159 23 69.6705 26.5682C71.6477 30.1136 72.6364 34.2045 72.6364 38.8409C72.6364 43.4773 71.6364 47.5682 69.6364 51.1136C67.6364 54.6591 64.7386 57.4205 60.9432 59.3977C57.1705 61.375 52.6023 62.3636 47.2386 62.3636H29.6818V50.5341H44.8523C47.6932 50.5341 50.0341 50.0455 51.875 49.0682C53.7386 48.0682 55.125 46.6932 56.0341 44.9432C56.9659 43.1705 57.4318 41.1364 57.4318 38.8409C57.4318 36.5227 56.9659 34.5 56.0341 32.7727C55.125 31.0227 53.7386 29.6705 51.875 28.7159C50.0114 27.7386 47.6477 27.25 44.7841 27.25H34.8295V85H20.0682Z"/>
</mask>
<path d="M20.0682 85V15.1818H47.6136C52.9091 15.1818 57.4205 16.1932 61.1477 18.2159C64.875 20.2159 67.7159 23 69.6705 26.5682C71.6477 30.1136 72.6364 34.2045 72.6364 38.8409C72.6364 43.4773 71.6364 47.5682 69.6364 51.1136C67.6364 54.6591 64.7386 57.4205 60.9432 59.3977C57.1705 61.375 52.6023 62.3636 47.2386 62.3636H29.6818V50.5341H44.8523C47.6932 50.5341 50.0341 50.0455 51.875 49.0682C53.7386 48.0682 55.125 46.6932 56.0341 44.9432C56.9659 43.1705 57.4318 41.1364 57.4318 38.8409C57.4318 36.5227 56.9659 34.5 56.0341 32.7727C55.125 31.0227 53.7386 29.6705 51.875 28.7159C50.0114 27.7386 47.6477 27.25 44.7841 27.25H34.8295V85H20.0682Z" fill="#3167CF"/>
<path d="M20.0682 85H18.0682V87H20.0682V85ZM20.0682 15.1818V13.1818H18.0682V15.1818H20.0682ZM61.1477 18.2159L60.1938 19.9738L60.2021 19.9782L61.1477 18.2159ZM69.6705 26.5682L67.9164 27.529L67.92 27.5357L67.9237 27.5423L69.6705 26.5682ZM60.9432 59.3977L60.0191 57.624L60.0148 57.6263L60.9432 59.3977ZM29.6818 62.3636H27.6818V64.3636H29.6818V62.3636ZM29.6818 50.5341V48.5341H27.6818V50.5341H29.6818ZM51.875 49.0682L52.8128 50.8347L52.8206 50.8305L51.875 49.0682ZM56.0341 44.9432L54.2637 44.0126L54.2593 44.0212L56.0341 44.9432ZM56.0341 32.7727L54.2593 33.6947L54.2665 33.7086L54.2739 33.7223L56.0341 32.7727ZM51.875 28.7159L50.9462 30.4871L50.9547 30.4916L50.9632 30.496L51.875 28.7159ZM34.8295 27.25V25.25H32.8295V27.25H34.8295ZM34.8295 85V87H36.8295V85H34.8295ZM22.0682 85V15.1818H18.0682V85H22.0682ZM20.0682 17.1818H47.6136V13.1818H20.0682V17.1818ZM47.6136 17.1818C52.6574 17.1818 56.8235 18.1447 60.1938 19.9737L62.1017 16.4581C58.0174 14.2416 53.1608 13.1818 47.6136 13.1818V17.1818ZM60.2021 19.9782C63.6022 21.8027 66.1556 24.3146 67.9164 27.529L71.4245 25.6073C69.2762 21.6854 66.1478 18.6291 62.0934 16.4536L60.2021 19.9782ZM67.9237 27.5423C69.7125 30.7498 70.6364 34.4965 70.6364 38.8409H74.6364C74.6364 33.9126 73.5829 29.4774 71.4172 25.594L67.9237 27.5423ZM70.6364 38.8409C70.6364 43.1815 69.7029 46.925 67.8944 50.131L71.3783 52.0963C73.5698 48.2113 74.6364 43.773 74.6364 38.8409H70.6364ZM67.8944 50.131C66.0947 53.3214 63.4897 55.816 60.0191 57.624L61.8672 61.1715C65.9876 59.0249 69.178 55.9968 71.3783 52.0963L67.8944 50.131ZM60.0148 57.6263C56.5932 59.4195 52.3609 60.3636 47.2386 60.3636V64.3636C52.8437 64.3636 57.7477 63.3305 61.8716 61.1692L60.0148 57.6263ZM47.2386 60.3636H29.6818V64.3636H47.2386V60.3636ZM31.6818 62.3636V50.5341H27.6818V62.3636H31.6818ZM29.6818 52.5341H44.8523V48.5341H29.6818V52.5341ZM44.8523 52.5341C47.9071 52.5341 50.5974 52.0108 52.8128 50.8347L50.9372 47.3017C49.4708 48.0802 47.4793 48.5341 44.8523 48.5341V52.5341ZM52.8206 50.8305C55.0119 49.6547 56.7006 47.9986 57.8089 45.8652L54.2593 44.0212C53.5494 45.3877 52.4654 46.4817 50.9294 47.3059L52.8206 50.8305ZM57.8044 45.8737C58.9078 43.7746 59.4318 41.4128 59.4318 38.8409H55.4318C55.4318 40.8599 55.024 42.5664 54.2638 44.0126L57.8044 45.8737ZM59.4318 38.8409C59.4318 36.2513 58.9098 33.8908 57.7943 31.8231L54.2739 33.7223C55.0221 35.1092 55.4318 36.7942 55.4318 38.8409H59.4318ZM57.8089 31.8507C56.6961 29.7086 54.996 28.0674 52.7868 26.9358L50.9632 30.496C52.4812 31.2735 53.5539 32.3369 54.2593 33.6947L57.8089 31.8507ZM52.8038 26.9447C50.5691 25.7728 47.8601 25.25 44.7841 25.25V29.25C47.4354 29.25 49.4536 29.7044 50.9462 30.4871L52.8038 26.9447ZM44.7841 25.25H34.8295V29.25H44.7841V25.25ZM32.8295 27.25V85H36.8295V27.25H32.8295ZM34.8295 83H20.0682V87H34.8295V83Z" fill="#FEFEFE" mask="url(#path-3-outside-1_2210_636)"/>
</g>
<defs>
<clipPath id="clip0_2210_636">
<rect width="100" height="100" rx="10" fill="white"/>
</clipPath>
</defs>
</svg>
