<svg width="49" height="50" viewBox="0 0 49 50" fill="none" xmlns="http://www.w3.org/2000/svg">
<path d="M8.16659 41.3333C7.04367 41.3333 6.08238 40.9335 5.28273 40.1338C4.48308 39.3342 4.08325 38.3729 4.08325 37.25V12.75C4.08325 11.627 4.48308 10.6658 5.28273 9.86611C6.08238 9.06645 7.04367 8.66663 8.16659 8.66663H40.8333C41.9562 8.66663 42.9175 9.06645 43.7171 9.86611C44.5168 10.6658 44.9166 11.627 44.9166 12.75V37.25C44.9166 38.3729 44.5168 39.3342 43.7171 40.1338C42.9175 40.9335 41.9562 41.3333 40.8333 41.3333H8.16659ZM24.4999 27.0416L8.16659 16.8333V37.25H40.8333V16.8333L24.4999 27.0416ZM24.4999 22.9583L40.8333 12.75H8.16659L24.4999 22.9583ZM8.16659 16.8333V12.75V37.25V16.8333Z" fill="#FEFEFE"/>
</svg>
