<svg width="40" height="40" viewBox="0 0 40 40" fill="none" xmlns="http://www.w3.org/2000/svg">
<path fill-rule="evenodd" clip-rule="evenodd" d="M40 20C40 8.9543 31.0457 -1.35705e-06 20 -8.74228e-07C8.9543 -3.91405e-07 -1.35705e-06 8.95431 -8.74228e-07 20C-3.91405e-07 31.0457 8.9543 40 20 40C31.0457 40 40 31.0457 40 20ZM31.7071 19.2929L25.3431 12.9289C24.9526 12.5384 24.3195 12.5384 23.9289 12.9289C23.5384 13.3195 23.5384 13.9526 23.9289 14.3431L28.5858 19L11 19C10.4477 19 10 19.4477 10 20C10 20.5523 10.4477 21 11 21L28.5858 21L23.9289 25.6569C23.5384 26.0474 23.5384 26.6805 23.9289 27.0711C24.3195 27.4616 24.9526 27.4616 25.3431 27.0711L31.7071 20.7071C32.0976 20.3166 32.0976 19.6834 31.7071 19.2929Z" fill="#FEFEFE"/>
</svg>
