<svg width="49" height="49" viewBox="0 0 49 49" fill="none" xmlns="http://www.w3.org/2000/svg">
<path d="M14.2916 46.9583C13.1687 46.9583 12.2074 46.5585 11.4077 45.7588C10.6081 44.9592 10.2083 43.9979 10.2083 42.875V6.12496C10.2083 5.00204 10.6081 4.04076 11.4077 3.24111C12.2074 2.44145 13.1687 2.04163 14.2916 2.04163H34.7083C35.8312 2.04163 36.7925 2.44145 37.5921 3.24111C38.3918 4.04076 38.7916 5.00204 38.7916 6.12496V42.875C38.7916 43.9979 38.3918 44.9592 37.5921 45.7588C36.7925 46.5585 35.8312 46.9583 34.7083 46.9583H14.2916ZM14.2916 40.8333V42.875H34.7083V40.8333H14.2916ZM14.2916 36.75H34.7083V12.25H14.2916V36.75ZM14.2916 8.16663H34.7083V6.12496H14.2916V8.16663Z" fill="#FEFEFE"/>
</svg>
